<svg width="128" height="128" viewBox="0 0 128 128" fill="none" xmlns="http://www.w3.org/2000/svg">
<path fill-rule="evenodd" clip-rule="evenodd" d="M11.1561 54.829C10.9131 54.829 10.8531 54.707 10.9741 54.526L12.2471 52.889C12.3671 52.707 12.6711 52.586 12.9131 52.586H34.5501C34.7931 52.586 34.8531 52.768 34.7321 52.95L33.7021 54.526C33.5811 54.707 33.2781 54.889 33.0961 54.889L11.1561 54.829ZM2.00409 60.404C1.76209 60.404 1.70109 60.284 1.82209 60.101L3.09509 58.465C3.21609 58.283 3.51909 58.162 3.76209 58.162H31.3981C31.6401 58.162 31.7621 58.344 31.7011 58.526L31.2161 59.98C31.1561 60.223 30.9131 60.344 30.6711 60.344L2.00409 60.404ZM16.6701 65.98C16.4281 65.98 16.3681 65.798 16.4891 65.616L17.3371 64.101C17.4591 63.919 17.7011 63.738 17.9441 63.738H30.0641C30.3071 63.738 30.4281 63.919 30.4281 64.162L30.3081 65.616C30.3081 65.859 30.0651 66.041 29.8831 66.041L16.6701 65.98ZM79.5801 53.738C75.7611 54.708 73.1551 55.435 69.3981 56.404C68.4881 56.647 68.4281 56.707 67.6401 55.798C66.7311 54.768 66.0641 54.101 64.7921 53.495C60.9731 51.617 57.2761 52.162 53.8221 54.405C49.7011 57.071 47.5801 61.01 47.6401 65.919C47.7001 70.768 51.0341 74.768 55.8221 75.435C59.9431 75.98 63.3981 74.525 66.1251 71.435C66.6701 70.768 67.1551 70.041 67.7611 69.192H56.0641C54.7921 69.192 54.4891 68.404 54.9131 67.374C55.7011 65.495 57.1551 62.344 58.0031 60.768C58.1861 60.404 58.6101 59.798 59.5191 59.798H81.5791C81.4591 61.435 81.4591 63.071 81.2161 64.708C80.5491 69.071 78.9131 73.071 76.2461 76.586C71.8821 82.344 66.1861 85.919 58.9731 86.889C53.0341 87.677 47.5191 86.525 42.6711 82.889C38.1861 79.495 35.6411 75.01 34.9741 69.435C34.1861 62.829 36.1251 56.889 40.1251 51.677C44.4281 46.041 50.1251 42.465 57.0951 41.192C62.7921 40.162 68.2461 40.829 73.1551 44.162C76.3671 46.283 78.6701 49.192 80.1851 52.707C80.5491 53.253 80.3071 53.556 79.5791 53.737L79.5801 53.738Z" fill="#00ACD7"/>
<path d="M99.6403 87.253C94.1253 87.131 89.0943 85.556 84.8523 81.919C81.2763 78.829 79.0343 74.889 78.3073 70.222C77.2163 63.374 79.0943 57.313 83.2163 51.92C87.6403 46.101 92.9733 43.071 100.186 41.798C106.367 40.708 112.186 41.314 117.458 44.889C122.246 48.162 125.215 52.586 126.003 58.404C127.033 66.586 124.67 73.253 119.033 78.95C115.033 83.01 110.124 85.556 104.488 86.707C102.852 87.01 101.215 87.071 99.6403 87.253ZM114.064 62.768C114.004 61.98 114.004 61.374 113.882 60.768C112.792 54.768 107.276 51.374 101.519 52.708C95.8823 53.98 92.2463 57.556 90.9133 63.253C89.8223 67.98 92.1253 72.768 96.4883 74.707C99.8223 76.162 103.155 75.98 106.367 74.344C111.155 71.859 113.761 67.98 114.064 62.768Z" fill="#00ACD7"/>
</svg>
