<svg width="128" height="128" viewBox="0 0 128 128" fill="none" xmlns="http://www.w3.org/2000/svg">
<path d="M1.4082 1.40802H126.592V126.593H1.4082V1.40802Z" fill="#F0DB4F"/>
<path d="M116.347 96.736C115.43 91.025 111.706 86.228 100.675 81.755C96.8426 79.994 92.5706 78.733 91.2976 75.829C90.8456 74.139 90.7856 73.187 91.0716 72.164C91.8926 68.844 95.8556 67.809 98.9966 68.761C101.02 69.439 102.935 70.998 104.09 73.485C109.492 69.987 109.481 70.01 113.253 67.606C111.872 65.465 111.135 64.477 110.231 63.561C106.982 59.932 102.555 58.063 95.4746 58.206L91.7866 58.683C88.2526 59.576 84.8846 61.431 82.9096 63.918C76.9836 70.642 78.6736 82.41 85.8846 87.253C92.9886 92.585 103.425 93.798 104.758 98.784C106.055 104.888 100.272 106.864 94.5236 106.162C90.2876 105.281 87.9316 103.128 85.3846 99.213C80.6966 101.926 80.6966 101.926 75.8766 104.698C77.0196 107.197 78.2206 108.328 80.1366 110.493C89.2046 119.691 111.897 119.239 115.967 105.317C116.132 104.839 117.228 101.651 116.347 96.736V96.736ZM69.4616 58.943H57.7526L57.7046 89.215C57.7046 95.653 58.0376 101.555 56.9906 103.364C55.2776 106.922 50.8386 106.481 48.8156 105.791C46.7566 104.779 45.7096 103.34 44.4966 101.306C44.1636 100.722 43.9136 100.27 43.8296 100.235L34.3096 106.065C35.8926 109.314 38.2246 112.134 41.2116 113.966C45.6736 116.644 51.6706 117.465 57.9426 116.025C62.0246 114.836 65.5466 112.373 67.3906 108.624C70.0566 103.709 69.4846 97.76 69.4606 91.18C69.5206 80.445 69.4616 69.712 69.4616 58.943V58.943Z" fill="white"/>
</svg>
