<svg width="136" height="128" viewBox="0 0 136 128" fill="none" xmlns="http://www.w3.org/2000/svg">
<g filter="url(#filter0_d_3_6990)">
<path d="M29.6996 44V44.4C29.6996 45.4 29.3996 45.5 29.1996 46.1C28.8996 46.8 28.9996 47.7 29.3996 48.3C29.3996 48.4 29.4996 48.5 29.4996 48.5C29.0996 45.7 31.3996 45.2 31.8996 44.4C31.8996 43.6 31.2996 43.1 30.7996 42.8C30.2996 42.5 29.8996 42.4 29.4996 42.4C29.1996 42.4 28.8996 42.5 28.5996 42.6C29.1996 43 29.4996 43.5 29.6996 44Z" fill="#DF234F"/>
<path d="M41.2 51V51.4C41.2 51.7 41.1 51.9 41.1 52.1C41 52.3 41 52.6 40.9 52.8C40.8 53 40.7 53.3 40.6 53.5C40.5 53.7 40.4 54 40.3 54.2C40.2 54.4 40 54.6 39.9 54.8C39.8 55 39.6 55.2 39.4 55.4C39.2 55.6 39.1 55.8 38.9 56L38.6 56.3C38.5 56.4 38.4 56.4 38.3 56.5C38.1 56.7 37.9 56.8 37.7 56.9C37.5 57 37.3 57.2 37 57.3C36.8 57.4 36.5 57.5 36.3 57.6C36.1 57.7 35.8 57.8 35.6 57.8C35.4 57.9 35.1 57.9 34.9 58C34.6 58 34.4 58.1 34.1 58.1H32.8C32.5 58.1 32.3 58 32 58C31.7 58 31.5 57.9 31.3 57.8C31.5 57.8 31.8 57.8 32 57.7C32.3 57.7 32.5 57.6 32.7 57.5C32.9 57.4 33.2 57.4 33.4 57.3C33.6 57.2 33.9 57.1 34.1 57C34.3 56.9 34.5 56.8 34.8 56.6C35 56.5 35.2 56.3 35.4 56.2C35.6 56 35.8 55.9 36 55.7L36.5 55.2C36.7 55 36.8 54.8 37 54.6C37 54.6 37 54.5 37.1 54.5C37.2 54.3 37.3 54.1 37.4 54C37.5 53.8 37.6 53.6 37.7 53.3C37.8 53.1 37.9 52.8 38 52.6C38.1 52.4 38.1 52.1 38.2 51.9C38.2 51.6 38.3 51.4 38.3 51.2V50.4V49.9C38.3 49.6 38.2 49.4 38.2 49.2C38.2 48.9 38.1 48.7 38 48.5C37.9 48.3 37.8 48 37.8 47.8C37.7 47.6 37.6 47.3 37.5 47.1C37.4 46.9 37.3 46.7 37.1 46.4C37 46.2 36.8 46 36.7 45.8C36.5 45.6 36.4 45.4 36.2 45.2L35.9 44.9C35.4 44.5 34.9 44.1 34.3 43.8C34.2 43.8 34.2 43.7 34.1 43.7C33.7 43.5 33.4 43.3 33 43.2V43.8C33 43.9 33 44 32.9 44.1C32.9 44.2 32.8 44.3 32.8 44.4C32.8 44.5 32.7 44.6 32.7 44.7L32.6 44.8C32.6 44.8 32.6 44.9 32.5 44.9C32.4 45 32.4 45.1 32.3 45.1L32.1 45.3L31.9 45.5C31.7 45.7 31.4 45.8 31.2 46C31.1 46.1 31 46.1 31 46.2L30.8 46.4L30.6 46.6L30.4 46.8C30.3 46.9 30.3 47 30.2 47C30.2 47.1 30.1 47.2 30.1 47.3C30.1 47.4 30 47.5 30 47.6C30 47.7 29.9 47.8 29.9 47.9V48.9C29.9 49 29.9 49.1 30 49.2C30 49.3 30.1 49.4 30.1 49.5C30.1 49.6 30.2 49.6 30.2 49.7L27.6 48.7C27.2 48.6 26.7 48.5 26.3 48.4C26.1 48.3 25.8 48.3 25.6 48.2C24.9 48.1 24.2 48 23.6 47.9H23.5C22.8 47.8 22.2 47.8 21.5 47.8C21 47.8 20.5 47.8 20 47.9C19.3 47.9 18.6 48 18 48.1C17.8 48.1 17.7 48.2 17.5 48.2C17.2 48.3 16.8 48.3 16.5 48.4C16.3 48.4 16.2 48.5 16 48.5C15.8 48.6 15.7 48.6 15.5 48.7C15.4 48.8 15.3 48.8 15.1 48.9H15C14.9 49 14.8 49 14.7 49.1H14.6C14.5 49.2 14.4 49.2 14.3 49.3C14.2 49.3 14.1 49.4 14.1 49.4C14.1 49.4 14 49.4 14 49.5C13.9 49.6 13.8 49.6 13.7 49.7C13.6 49.8 13.5 49.8 13.4 49.9C13.3 50 13.2 50 13.2 50.1C13.1 50.1 13.1 50.2 13 50.3C12.9 50.3 12.9 50.4 12.8 50.4H12.7C12.6 50.4 12.6 50.5 12.5 50.5L12.3 50.7L12.1 50.9C12 50.7 12 50.7 11.9 50.8C11.9 50.8 11.8 50.8 11.8 50.9L11.6 51.1V51.2L11.3 51.5C11.1 51.7 10.9 51.9 10.7 52C10.5 52.2 10.3 52.3 10.1 52.5C9.9 52.7 9.7 52.8 9.4 52.9C9.2 53 9 53.1 8.7 53.2C8.5 53.3 8.2 53.4 8 53.5C7.5 53.6 7 53.8 6.6 53.8H6.3C6.2 53.8 6.1 53.8 6 53.9C6 54 5.9 54 5.8 54C5.7 54 5.6 54.1 5.5 54.1C5.4 54.2 5.3 54.2 5.3 54.3C5.2 54.4 5.1 54.4 5.1 54.5C5 54.6 4.9 54.6 4.9 54.7L4.7 54.9C4.6 55 4.6 55.1 4.5 55.2C4.4 55.3 4.4 55.4 4.3 55.5C4.3 55.6 4.2 55.7 4.2 55.8C4.2 55.9 4.1 56 4.1 56.1C4.1 56.2 4.1 56.3 4 56.4V57.2C4 57.3 4 57.3 4.1 57.4C4.1 57.5 4.2 57.5 4.2 57.6C4.2 57.7 4.3 57.7 4.3 57.8L4.5 58L4.7 58.2C5 58.4 5 58.5 5.4 58.7C5.5 58.7 5.5 58.8 5.6 58.8V58.9C5.6 59 5.6 59.1 5.7 59.2C5.7 59.3 5.8 59.4 5.8 59.5C5.8 59.6 5.9 59.6 5.9 59.7V59.8C5.9 59.9 6 60 6 60C6.1 60.1 6.1 60.2 6.2 60.2L6.4 60.4L6.6 60.6L6.8 60.8C6.9 60.9 7 60.9 7 60.9C7.1 60.9 7.2 61 7.3 61H7.7V62.4C8 62.7 8.5 62 9 61.2C8.9 62 8.9 62.9 9 63.1C9.1 63.4 9.8 62.5 10.4 61.5C18.3 59.7 25.6 65.1 26.3 72.9C26.2 71.7 24.7 71 24 71.2C23.7 72 23.1 73.1 22.2 73.7C22.3 73 22.2 72.2 22.1 71.5C21.9 72.5 21.4 73.5 20.7 74.3C19.6 74.4 18.6 73.9 18 73.1L17.9 73C17.9 72.9 17.8 72.8 17.8 72.8C17.8 72.7 17.7 72.6 17.7 72.6V72.4V72.2C17.7 72.1 17.7 72 17.8 72C17.8 71.9 17.8 71.8 17.9 71.8C17.9 71.7 18 71.6 18 71.6C18.2 71.1 18.2 70.6 17.8 70.4C17.7 70.4 17.7 70.3 17.6 70.3H17.5H17.4C17.3 70.3 17.2 70.3 17.2 70.2H16.2C16.1 70.2 16 70.2 16 70.3C15.9 70.3 15.9 70.4 15.8 70.4C15.7 70.4 15.7 70.5 15.6 70.5C12.7 72 14.3 76 16 77.1C15.3 77.2 14.6 77.4 14.5 77.5C15 77.8 15.5 78 16 78.2C16.7 78.4 17.5 78.6 17.8 78.7C18.7 78.9 19.7 79 20.6 78.9C25.6 78.6 29.6 74.8 30.4 69.8C30.4 69.9 30.4 70 30.5 70.1C30.5 70.3 30.6 70.5 30.6 70.7V73.8C30.6 73.9 30.6 74 30.5 74.1C30.5 74.2 30.5 74.3 30.4 74.4C30.4 74.5 30.4 74.6 30.3 74.7C30.3 74.8 30.2 74.9 30.2 75C30.2 75.1 30.1 75.2 30.1 75.3C30.1 75.4 30 75.5 30 75.6C30 75.7 29.9 75.8 29.9 75.9C29.9 76 29.8 76.1 29.8 76.2C29.8 76.3 29.7 76.4 29.7 76.5V76.6C29 78.1 27.9 79.4 26.6 80.4C26.5 80.5 26.4 80.5 26.3 80.6C26.3 80.6 26.2 80.6 26.2 80.7C26.1 80.8 26 80.8 26 80.9V81C26.2 81 26.3 81 26.5 80.9C26.8 80.9 27.1 80.8 27.4 80.7C27.5 80.7 27.6 80.7 27.6 80.6H28C28.1 80.6 28.1 80.6 28.2 80.5C29.3 80.2 30.4 79.9 31.4 79.4C29.6 81.8 27.2 83.8 24.5 85.1C25.8 85 27.1 84.8 28.3 84.4C32.8 83.1 36.6 80 38.9 76C38.4 78.6 37.4 81 35.9 83.2C37 82.5 38 81.7 38.9 80.7C41.4 78.1 43 74.8 43.6 71.2C44 73 44.1 74.8 43.9 76.6C51.7 65.8 44.3 54.1 41.2 51ZM79.2 71C79.6 60.7 78.8 59.8 78.8 59.8C74.3 52.5 66.9 59.8 66.9 59.8V55.6H65.8C64.3 58.3 60 58.8 60 58.8V59.9C62.8 60.5 62.5 61.8 62.5 61.8C62.5 61.8 62.6 68.5 62.6 70.6C62.6 72.7 61.9 72.3 61.9 72.3L60 72.7V73.9C62 73.3 69.1 73.9 69.1 73.9L69.2 72.7C67.1 72.4 66.9 71.1 66.9 71.1V61.2C68.8 59.5 70.6 58.9 70.6 58.9C74.3 58 74.6 61.6 74.6 61.6L74.7 70.7C75.4 73.1 71.9 72.7 71.9 72.7L72 73.9L77.5 73.5L81.2 73.9V72.7C79.4 72.4 79.3 72.4 79.2 71ZM92.2 56.2C84.2 56.2 83.8 63.4 83.8 63.4C83.8 63.4 82.4 74.3 92.2 74.3C98.5 74.3 100.4 70.7 100.4 70.7L99.2 69.6C99.2 69.6 89.8 76.4 88.6 63.5H100.5C100.4 63.4 100.2 56.2 92.2 56.2ZM95.9 62.1H88.5V61.6C88.5 59.5 90.2 57.7 92.4 57.7C94.3 57.7 95.9 59.3 95.9 61.2V62.1ZM113.4 63.7C110.7 63.2 108.9 62.5 108.9 62.5C108.9 62.5 104.7 60.8 108.4 58.3C112.5 56.2 114.9 62.2 114.9 62.2C114.9 62.2 115.8 62.4 116.4 61.9C116.6 61.3 115.9 57.7 115.9 57.7C115.9 57.7 114.6 56.1 108.1 56.6C108.1 56.6 104.6 57.4 104 60.7C103.4 64 105.5 65.8 105.5 65.8C105.5 65.8 106.4 67.1 109.5 67.4C112.2 67.7 113.4 68.8 113.4 68.8C113.4 68.8 114.8 70.1 113.3 71.7C111.8 73.3 109.8 72.7 109.8 72.7C109.8 72.7 107.5 72.8 104.8 68.1L103.5 68.2L104 72.9C104 72.9 110.4 76.5 115.3 72.9C120.3 68.4 116.1 64.2 113.4 63.7ZM131.1 70.6C128 73.2 127.4 70.1 127.4 70.1V59.5H131.6V57.5H127.6V53.2H126.3C124.5 57 120.5 58.3 120.5 58.3V59.1C120.5 59.6 120.9 59.6 120.9 59.6H122.9C122.9 59.6 122.7 67.3 122.8 70C122.9 72.7 124.8 73.5 124.8 73.5C124.8 73.5 126.1 74.2 128.2 74C130.3 73.8 131.8 71.7 131.8 71.7L131.1 70.6Z" fill="#DF234F"/>
</g>
<defs>
<filter id="filter0_d_3_6990" x="0" y="0" width="136" height="136" filterUnits="userSpaceOnUse" color-interpolation-filters="sRGB">
<feFlood flood-opacity="0" result="BackgroundImageFix"/>
<feColorMatrix in="SourceAlpha" type="matrix" values="0 0 0 0 0 0 0 0 0 0 0 0 0 0 0 0 0 0 127 0" result="hardAlpha"/>
<feOffset dy="4"/>
<feGaussianBlur stdDeviation="2"/>
<feComposite in2="hardAlpha" operator="out"/>
<feColorMatrix type="matrix" values="0 0 0 0 0 0 0 0 0 0 0 0 0 0 0 0 0 0 0.25 0"/>
<feBlend mode="normal" in2="BackgroundImageFix" result="effect1_dropShadow_3_6990"/>
<feBlend mode="normal" in="SourceGraphic" in2="effect1_dropShadow_3_6990" result="shape"/>
</filter>
</defs>
</svg>
