<svg width="128" height="128" viewBox="0 0 128 128" fill="none" xmlns="http://www.w3.org/2000/svg">
<path d="M114.325 80.749C114.035 80.749 113.747 80.673 113.493 80.525L110.843 78.957C110.447 78.736 110.64 78.657 110.771 78.612C111.299 78.428 111.406 78.385 111.969 78.067C112.028 78.034 112.105 78.046 112.166 78.082L114.201 79.291C114.238 79.3112 114.281 79.3218 114.324 79.3218C114.367 79.3218 114.409 79.3112 114.447 79.291L122.384 74.71C122.421 74.688 122.452 74.6565 122.473 74.6188C122.495 74.5811 122.506 74.5384 122.506 74.495V65.335C122.506 65.291 122.494 65.2477 122.473 65.2094C122.451 65.171 122.42 65.1389 122.383 65.116L114.449 60.539C114.411 60.5183 114.369 60.5075 114.326 60.5075C114.283 60.5075 114.241 60.5183 114.204 60.539L106.271 65.117C106.233 65.1397 106.202 65.1717 106.18 65.2098C106.158 65.248 106.146 65.291 106.146 65.335V74.495C106.146 74.583 106.195 74.666 106.271 74.707L108.445 75.964C109.625 76.553 110.348 75.859 110.348 75.161V66.116C110.348 65.989 110.451 65.888 110.578 65.888H111.585C111.71 65.888 111.814 65.989 111.814 66.116V75.161C111.814 76.735 110.957 77.638 109.464 77.638C109.005 77.638 108.644 77.638 107.636 77.142L105.555 75.944C105.301 75.7964 105.091 75.5851 104.945 75.331C104.799 75.0769 104.723 74.789 104.723 74.496V65.336C104.723 64.741 105.04 64.186 105.555 63.89L113.492 59.303C113.747 59.1637 114.034 59.0908 114.325 59.0908C114.616 59.0908 114.903 59.1637 115.159 59.303L123.096 63.89C123.61 64.187 123.929 64.742 123.929 65.336V74.496C123.928 74.789 123.851 75.0769 123.705 75.3309C123.559 75.5849 123.349 75.7963 123.096 75.944L115.159 80.526C114.905 80.673 114.618 80.7499 114.325 80.749ZM116.778 74.438C113.303 74.438 112.576 72.843 112.576 71.506C112.576 71.4452 112.6 71.3869 112.643 71.344C112.686 71.3011 112.745 71.277 112.806 71.277H113.832C113.887 71.2768 113.94 71.2962 113.982 71.3318C114.023 71.3674 114.051 71.4168 114.06 71.471C114.214 72.516 114.677 73.043 116.778 73.043C118.449 73.043 119.161 72.665 119.161 71.777C119.161 71.265 118.959 70.886 116.361 70.631C114.189 70.416 112.846 69.937 112.846 68.198C112.846 66.597 114.196 65.641 116.458 65.641C119.001 65.641 120.259 66.524 120.418 68.418C120.42 68.4499 120.416 68.4819 120.406 68.5122C120.395 68.5424 120.379 68.5703 120.358 68.594C120.336 68.6167 120.31 68.6349 120.281 68.6475C120.252 68.66 120.221 68.6666 120.19 68.667H119.159C119.107 68.6671 119.056 68.6494 119.016 68.6168C118.975 68.5842 118.947 68.5388 118.936 68.488C118.688 67.388 118.088 67.037 116.457 67.037C114.632 67.037 114.42 67.674 114.42 68.149C114.42 68.726 114.67 68.894 117.135 69.22C119.574 69.543 120.733 69.999 120.733 71.714C120.734 73.447 119.292 74.438 116.778 74.438Z" fill="#83CD29"/>
<path d="M97.9818 68.43C98.2948 68.247 98.4878 67.913 98.4878 67.55V65.196C98.4878 64.834 98.2958 64.5 97.9818 64.317L89.6178 59.461C89.4631 59.3711 89.2875 59.3235 89.1086 59.3232C88.9297 59.3228 88.7538 59.3697 88.5988 59.459L80.1828 64.318C80.0285 64.4074 79.9003 64.5357 79.8112 64.6901C79.722 64.8445 79.675 65.0197 79.6748 65.198V74.914C79.6748 75.279 79.8708 75.617 80.1888 75.798L88.5518 80.563C88.8598 80.74 89.2378 80.741 89.5488 80.569L94.6068 77.757C94.6855 77.7133 94.7513 77.6495 94.7972 77.572C94.8432 77.4946 94.8677 77.4063 94.8683 77.3163C94.8689 77.2262 94.8456 77.1376 94.8007 77.0596C94.7558 76.9815 94.6909 76.9168 94.6128 76.872L86.1448 72.012C86.0671 71.9678 86.0025 71.9037 85.9576 71.8265C85.9126 71.7492 85.8889 71.6614 85.8888 71.572V68.526C85.8888 68.344 85.9858 68.177 86.1428 68.087L88.7798 66.567C88.8568 66.5223 88.9443 66.4988 89.0333 66.4988C89.1223 66.4988 89.2098 66.5223 89.2868 66.567L91.9238 68.087C92.0011 68.1313 92.0654 68.1952 92.1102 68.2723C92.155 68.3494 92.1786 68.4369 92.1788 68.526V70.922C92.1783 71.0116 92.2015 71.0997 92.2461 71.1774C92.2907 71.2551 92.3551 71.3196 92.4328 71.3643C92.5104 71.409 92.5985 71.4324 92.6881 71.432C92.7777 71.4316 92.8656 71.4074 92.9428 71.362L97.9818 68.43" fill="white"/>
<path d="M88.9845 67.974C89.0143 67.9573 89.0478 67.9486 89.082 67.9486C89.1161 67.9486 89.1497 67.9573 89.1795 67.974L90.7945 68.907C90.8545 68.942 90.8915 69.007 90.8915 69.076V70.941C90.8915 71.011 90.8545 71.075 90.7945 71.11L89.1795 72.042C89.1498 72.0592 89.1162 72.0683 89.082 72.0683C89.0477 72.0683 89.0141 72.0592 88.9845 72.042L87.3705 71.11C87.3406 71.093 87.3158 71.0684 87.2986 71.0387C87.2814 71.009 87.2724 70.9753 87.2725 70.941V69.076C87.2725 69.007 87.3095 68.942 87.3705 68.907L88.9845 67.974Z" fill="#83CD29"/>
<path d="M67.0834 71.854C67.0834 71.944 67.0354 72.028 66.9564 72.074L64.0664 73.74C64.0279 73.7626 63.984 73.7745 63.9394 73.7745C63.8947 73.7745 63.8509 73.7626 63.8124 73.74L60.9224 72.074C60.8838 72.0516 60.8518 72.0196 60.8295 71.981C60.8073 71.9424 60.7955 71.8986 60.7954 71.854V68.516C60.7954 68.426 60.8444 68.341 60.9224 68.295L63.8124 66.627C63.8509 66.6039 63.895 66.5917 63.9399 66.5917C63.9848 66.5917 64.0289 66.6039 64.0674 66.627L66.9584 68.295C66.9967 68.3178 67.0284 68.3502 67.0505 68.3889C67.0726 68.4276 67.0843 68.4714 67.0844 68.516V71.854H67.0834ZM67.8644 47.138C67.7869 47.0957 67.6998 47.0741 67.6115 47.0755C67.5232 47.0769 67.4367 47.1011 67.3606 47.1458C67.2844 47.1905 67.2212 47.2542 67.177 47.3307C67.1328 47.4071 67.1092 47.4937 67.1084 47.582V60.497C67.1081 60.5593 67.0917 60.6204 67.0607 60.6744C67.0296 60.7284 66.9851 60.7734 66.9314 60.805C66.8772 60.836 66.8158 60.8522 66.7534 60.8522C66.691 60.8522 66.6296 60.836 66.5754 60.805L64.4674 59.59C64.313 59.5011 64.138 59.4543 63.9599 59.4543C63.7818 59.4543 63.6068 59.5011 63.4524 59.59L55.0344 64.448C54.8797 64.5373 54.7513 64.6657 54.6619 64.8204C54.5726 64.975 54.5255 65.1504 54.5254 65.329V75.048C54.5254 75.411 54.7194 75.746 55.0334 75.929L63.4514 80.79C63.7654 80.972 64.1534 80.972 64.4684 80.79L72.8884 75.929C73.0427 75.8394 73.1709 75.7109 73.26 75.5563C73.3492 75.4017 73.3962 75.2265 73.3964 75.048V50.821C73.3964 50.453 73.1964 50.113 72.8754 49.933L67.8644 47.138Z" fill="white"/>
<path d="M38.2384 59.407C38.3928 59.3176 38.568 59.2706 38.7464 59.2706C38.9248 59.2706 39.1 59.3176 39.2544 59.407L47.6724 64.264C47.9864 64.446 48.1804 64.782 48.1804 65.145V74.867C48.1804 75.23 47.9864 75.566 47.6724 75.748L39.2554 80.609C39.1007 80.698 38.9254 80.7448 38.7469 80.7448C38.5685 80.7448 38.3931 80.698 38.2384 80.609L29.8234 75.748C29.6691 75.6584 29.5409 75.5299 29.4518 75.3753C29.3627 75.2207 29.3156 75.0454 29.3154 74.867V65.144C29.3154 64.782 29.5094 64.446 29.8234 64.264L38.2384 59.407Z" fill="#83CD29"/>
<path d="M22.9304 65.064C22.9304 64.698 22.7384 64.362 22.4224 64.181L14.0074 59.338C13.8661 59.2561 13.7067 59.2104 13.5434 59.205H13.4564C13.2931 59.2105 13.1338 59.2562 12.9924 59.338L4.57638 64.181C4.42156 64.2706 4.29303 64.3994 4.20369 64.5544C4.11435 64.7094 4.06734 64.8851 4.06738 65.064L4.08538 78.104C4.08538 78.286 4.18038 78.455 4.33938 78.543C4.41552 78.5892 4.50285 78.6136 4.59188 78.6136C4.68092 78.6136 4.76825 78.5892 4.84438 78.543L9.84438 75.679C10.1604 75.491 10.3534 75.16 10.3534 74.797V68.705C10.3534 68.341 10.5454 68.006 10.8604 67.824L12.9904 66.598C13.1443 66.5075 13.3198 66.4602 13.4984 66.461C13.6724 66.461 13.8504 66.505 14.0054 66.598L16.1334 67.824C16.4484 68.006 16.6424 68.341 16.6424 68.705V74.797C16.6424 75.16 16.8374 75.493 17.1514 75.679L22.1514 78.543C22.2285 78.5871 22.3158 78.6101 22.4046 78.6099C22.4934 78.6097 22.5806 78.5862 22.6575 78.5418C22.7344 78.4974 22.7983 78.4336 22.8428 78.3568C22.8874 78.28 22.911 78.1928 22.9114 78.104L22.9304 65.064" fill="white"/>
</svg>
