<svg width="128" height="128" viewBox="0 0 128 128" fill="none" xmlns="http://www.w3.org/2000/svg">
<path d="M63.9992 56.7999C69.1355 56.7999 73.2992 52.6362 73.2992 47.5C73.2992 42.3637 69.1355 38.2 63.9992 38.2C58.863 38.2 54.6992 42.3637 54.6992 47.5C54.6992 52.6362 58.863 56.7999 63.9992 56.7999Z" fill="#61DAFB"/>
<path d="M63.9996 81.7C71.2996 88.8 78.4996 93 84.2996 93C86.1996 93 87.9996 92.6 89.4996 91.7C94.6996 88.7 96.5996 81.2 94.7996 70.5C94.4996 68.6 94.0996 66.7 93.5996 64.7C95.5996 64.1 97.3996 63.5 99.1996 62.9C109.3 59 114.9 53.6 114.9 47.7C114.9 41.7 109.3 36.3 99.1996 32.5C97.3996 31.8 95.5996 31.2 93.5996 30.7C94.0996 28.7 94.4996 26.8 94.7996 24.9C96.4996 14 94.5996 6.39998 89.3996 3.39998C87.8996 2.49998 86.0996 2.09998 84.1996 2.09998C78.4996 2.09998 71.1996 6.29997 63.8996 13.4C56.6996 6.29997 49.4996 2.09998 43.6996 2.09998C41.7996 2.09998 39.9996 2.49998 38.4996 3.39998C33.2996 6.39998 31.3996 13.9 33.1996 24.6C33.4996 26.5 33.8996 28.4 34.3996 30.4C32.3996 31 30.5996 31.6 28.7996 32.2C18.6996 36.1 13.0996 41.5 13.0996 47.4C13.0996 53.4 18.6996 58.8 28.7996 62.6C30.5996 63.3 32.3996 63.9 34.3996 64.4C33.8996 66.4 33.4996 68.3 33.1996 70.2C31.4996 80.9 33.3996 88.5 38.4996 91.4C39.9996 92.3 41.7996 92.7 43.6996 92.7C49.4996 92.9 56.6996 88.7 63.9996 81.7ZM58.3996 68.2C60.1996 68.3 62.0996 68.3 63.9996 68.3C65.8996 68.3 67.7996 68.3 69.5996 68.2C67.7996 70.6 65.8996 72.8 63.9996 74.9C62.0996 72.8 60.1996 70.6 58.3996 68.2ZM45.9996 57.9C46.9996 59.6 47.8996 61.2 48.9996 62.8C45.8996 62.4 42.9996 61.9 40.1996 61.3C41.0996 58.6 42.0996 55.8 43.2996 53C44.0996 54.6 44.9996 56.3 45.9996 57.9ZM40.1996 33.8C42.9996 33.2 45.8996 32.7 48.9996 32.3C47.9996 33.9 46.9996 35.5 45.9996 37.2C44.9996 38.9 44.0996 40.5 43.2996 42.2C41.9996 39.3 40.9996 36.5 40.1996 33.8ZM45.6996 47.5C46.9996 44.8 48.3996 42.1 49.9996 39.4C51.4996 36.8 53.1996 34.2 54.8996 31.6C57.8996 31.4 60.8996 31.3 63.9996 31.3C67.1996 31.3 70.1996 31.4 73.0996 31.6C74.8996 34.2 76.4996 36.8 77.9996 39.4C79.5996 42.1 80.9996 44.8 82.2996 47.5C80.9996 50.2 79.5996 52.9 77.9996 55.6C76.4996 58.2 74.7996 60.8 73.0996 63.4C70.0996 63.6 67.0996 63.7 63.9996 63.7C60.7996 63.7 57.7996 63.6 54.8996 63.4C53.0996 60.8 51.4996 58.2 49.9996 55.6C48.3996 52.9 46.9996 50.2 45.6996 47.5ZM84.7996 42.1L82.0996 37.1C81.0996 35.4 80.1996 33.8 79.0996 32.2C82.1996 32.6 85.0996 33.1 87.8996 33.7C86.9996 36.5 85.9996 39.3 84.7996 42.1ZM84.7996 52.9C85.9996 55.7 86.9996 58.5 87.8996 61.2C85.0996 61.8 82.1996 62.3 79.0996 62.7C80.0996 61.1 81.0996 59.5 82.0996 57.8C82.9996 56.3 83.8996 54.6 84.7996 52.9ZM87.0996 87.6C86.2996 88.1 85.2996 88.3 84.1996 88.3C79.2996 88.3 73.1996 84.3 67.1996 78.3C70.0996 75.2 72.8996 71.7 75.6996 67.8C80.3996 67.4 84.8996 66.7 89.0996 65.7C89.5996 67.5 89.8996 69.3 90.1996 71.1C91.5996 79.6 90.4996 85.7 87.0996 87.6ZM92.2996 34.9C103.5 38.1 110.2 43 110.2 47.5C110.2 51.4 105.6 55.3 97.4996 58.4C95.8996 59 94.0996 59.6 92.2996 60.1C90.9996 56 89.3996 51.8 87.3996 47.5C89.3996 43.2 91.0996 39 92.2996 34.9ZM84.2996 6.69998C85.3996 6.69998 86.2996 6.89998 87.1996 7.39998C90.4996 9.29998 91.6996 15.3 90.2996 23.9C89.9996 25.6 89.5996 27.4 89.1996 29.3C84.9996 28.4 80.4996 27.7 75.7996 27.2C73.0996 23.3 70.1996 19.8 67.2996 16.7C73.2996 10.8 79.3996 6.69998 84.2996 6.69998ZM69.5996 26.8C67.7996 26.7 65.8996 26.7 63.9996 26.7C62.0996 26.7 60.1996 26.7 58.3996 26.8C60.1996 24.4 62.0996 22.2 63.9996 20.1C65.8996 22.2 67.7996 24.5 69.5996 26.8ZM40.8996 7.39998C41.6996 6.89998 42.6996 6.69998 43.7996 6.69998C48.6996 6.69998 54.7996 10.7 60.7996 16.7C57.8996 19.8 55.0996 23.3 52.2996 27.2C47.5996 27.6 43.0996 28.3 38.8996 29.3C38.3996 27.5 38.0996 25.7 37.7996 23.9C36.3996 15.4 37.4996 9.39998 40.8996 7.39998ZM35.6996 60.1C24.4996 56.9 17.7996 52 17.7996 47.5C17.7996 43.6 22.3996 39.7 30.4996 36.6C32.0996 36 33.8996 35.4 35.6996 34.9C36.9996 39 38.5996 43.2 40.5996 47.5C38.5996 51.8 36.8996 56.1 35.6996 60.1ZM37.7996 71.1C38.0996 69.4 38.4996 67.6 38.8996 65.7C43.0996 66.6 47.5996 67.3 52.2996 67.8C54.9996 71.7 57.8996 75.2 60.7996 78.3C54.7996 84.2 48.6996 88.3 43.7996 88.3C42.6996 88.3 41.7996 88.1 40.8996 87.6C37.4996 85.7 36.3996 79.6 37.7996 71.1ZM33.5996 112.3C35.7996 109.6 35.8996 106.6 34.6996 103.6C33.4996 100.6 30.9996 99.2 27.8996 99.1C24.1996 99 20.3996 99.1 16.6996 99.1H15.9996V125H18.9996V115.2H23.6996C24.2996 115.2 24.7996 115.4 25.0996 115.9L31.0996 125.2C31.1996 125.4 31.4996 125.7 31.6996 125.7H35.5996C33.1996 122 30.8996 118.5 28.4996 114.9C30.5996 114.6 32.3996 113.9 33.5996 112.3ZM18.9996 112.1V102.2H20.0996C22.3996 102.2 24.7996 102.1 27.0996 102.3C29.7996 102.4 31.6996 104.5 31.6996 107.2C31.6996 109.9 29.4996 112 26.7996 112.1C24.3996 112.2 21.9996 112.1 18.9996 112.1ZM57.6996 113.4C56.0996 106.4 49.6996 104.6 44.7996 106.8C40.9996 108.5 39.2996 111.8 39.1996 115.9C39.0996 119 39.9996 121.8 42.3996 123.9C45.0996 126.3 48.3996 126.6 51.7996 126C53.6996 125.6 55.3996 124.7 56.6996 123.3C56.1996 122.6 55.6996 121.9 55.1996 121.3C52.3996 123.7 49.2996 124.5 45.8996 122.9C43.6996 121.8 42.5996 119.1 42.3996 117.1H57.8996V115.8C57.9996 114.9 57.8996 114.1 57.6996 113.4ZM42.5996 115C42.2996 112 45.2996 108.8 48.5996 108.8C52.3996 108.7 54.7996 111 54.8996 115H42.5996ZM73.2996 106.3C71.7996 106 70.1996 105.9 68.6996 106C66.2996 106.2 64.1996 107.3 62.4996 109.1C62.9996 109.8 63.3996 110.5 63.9996 111.3C64.1996 111.1 64.3996 110.9 64.5996 110.8C66.1996 109.3 68.0996 108.5 70.3996 108.7C72.1996 108.8 73.8996 109.4 74.3996 111.2C74.7996 112.6 74.6996 114.1 74.7996 115.6C74.4996 115.6 74.3996 115.5 74.2996 115.4C71.8996 113.4 69.1996 113 66.2996 113.7C63.5996 114.4 61.8996 116.5 61.6996 119.2C61.4996 122.3 62.8996 124.6 65.5996 125.7C67.2996 126.4 69.1996 126.4 70.9996 126C72.3996 125.7 72.9996 124.9 74.9996 123.8V125.1H77.7996C77.7996 121.1 77.8996 116.2 77.7996 111.6C77.7996 108.7 76.0996 106.9 73.2996 106.3ZM74.6996 118.9C74.5996 119.2 74.6996 119.5 74.6996 119.8C74.6996 121.9 74.1996 122.6 72.1996 123.4C70.7996 123.9 69.2996 124.1 67.7996 123.6C66.0996 123.1 64.8996 121.6 64.8996 119.9C64.7996 118.2 65.8996 116.5 67.5996 116C69.8996 115.2 71.9996 115.7 73.8996 117.1C74.4996 117.6 74.8996 118.1 74.6996 118.9ZM90.2996 109C92.8996 108.2 95.2996 108.7 97.0996 110.9L97.3996 111.1C98.0996 110.5 98.6996 109.9 99.4996 109.2C99.1996 108.9 99.0996 108.7 98.8996 108.4C95.9996 105.3 90.2996 104.9 86.7996 107.4C81.8996 111 81.9996 118 84.3996 121.7C86.6996 125.2 89.9996 126.4 93.8996 125.9C96.1996 125.6 98.0996 124.5 99.5996 122.6C98.8996 122 98.1996 121.4 97.4996 120.7C97.2996 120.9 97.1996 121 97.0996 121.2C94.3996 124.2 89.8996 123.9 87.4996 120.7C86.0996 118.8 85.7996 116.6 86.1996 114.4C86.3996 111.9 87.6996 109.9 90.2996 109ZM111.1 122.6C110.9 122.7 110.8 122.8 110.8 122.8C110 123.4 109.2 123.5 108.3 123.2C107.4 122.8 107.3 122 107.2 121.2V109.8C107.2 109.6 107.2 110 107.3 109H111.1V106H107.1V101H104.1V106.4H101.5C101.3 106.4 101 106.6 101 106.8C100.9 107.5 101 108 101 109H104.2V121.8C104.2 123.4 104.6 124.8 106 125.6C107.5 126.5 110.4 126.3 111.7 125.2C111.9 125.1 112 124.7 112 124.6C111.7 124 111.4 123.3 111.1 122.6Z" fill="#61DAFB"/>
</svg>
