<svg width="128" height="128" viewBox="0 0 128 128" fill="none" xmlns="http://www.w3.org/2000/svg">
<path d="M13.227 56.074C9.699 56.074 7.5 57.852 6.625 61.375C7.949 59.602 9.5 58.949 11.25 59.398C12.25 59.648 12.977 60.375 13.773 61.199C15.074 62.523 16.574 64.051 19.852 64.051C23.375 64.051 25.574 62.273 26.449 58.75C25.125 60.523 23.574 61.176 21.824 60.727C20.824 60.477 20.102 59.75 19.301 58.926C18 57.602 16.5 56.074 13.227 56.074ZM6.602 64C3.074 64 0.875 65.773 0 69.3C1.324 67.523 2.875 66.875 4.625 67.324C5.625 67.574 6.352 68.301 7.148 69.125C8.449 70.449 9.949 71.977 13.227 71.977C16.75 71.977 18.949 70.199 19.824 66.676C18.5 68.449 16.949 69.102 15.199 68.648C14.199 68.398 13.477 67.676 12.676 66.852C11.398 65.523 9.898 64 6.602 64Z" fill="url(#paint0_linear_3_7048)"/>
<path d="M39.6764 62.75H37.3754V67.227C37.3754 68.426 38.1484 68.398 39.6754 68.324V70.125C36.5754 70.5 35.3524 69.648 35.3524 67.227V62.75H33.6484V60.824H35.3524V58.324L37.3524 57.727V60.824H39.6484V62.75H39.6764ZM48.4764 60.824H50.4764V70.125H48.4764V68.773C47.7734 69.75 46.6764 70.352 45.2264 70.352C42.6994 70.352 40.6024 68.199 40.6024 65.449C40.6024 62.676 42.6994 60.551 45.2274 60.551C46.6764 60.551 47.7734 61.148 48.4774 62.125L48.4764 60.824ZM45.5234 68.449C47.1994 68.449 48.4774 67.199 48.4774 65.477C48.4774 63.75 47.1994 62.5 45.5234 62.5C43.8524 62.5 42.5744 63.75 42.5744 65.477C42.6024 67.199 43.8524 68.449 45.5244 68.449H45.5234ZM53.8244 59.426C53.1254 59.426 52.5514 58.824 52.5514 58.148C52.5514 57.449 53.1254 56.875 53.8244 56.875C54.5244 56.875 55.1024 57.449 55.1024 58.148C55.1254 58.824 54.5234 59.426 53.8244 59.426ZM52.8244 70.125V60.825H54.8244V70.125H52.8244ZM57.1484 70.125V56.551H59.1484V70.125H57.1484ZM72.2274 60.825H74.3524L71.4264 70.125H69.4494L67.5234 63.852L65.5744 70.125H63.6024L60.6764 60.825H62.8004L64.6004 67.25L66.5504 60.824H68.4764L70.3974 67.25L72.2274 60.825ZM76.8244 59.425C76.1254 59.425 75.5514 58.825 75.5514 58.148C75.5514 57.449 76.1254 56.875 76.8244 56.875C77.5244 56.875 78.1024 57.449 78.1024 58.148C78.1254 58.824 77.5514 59.426 76.8244 59.426V59.425ZM75.8244 70.125V60.825H77.8244V70.125H75.8244ZM85.0514 60.575C87.1254 60.575 88.6254 62 88.6254 64.398V70.125H86.6254V64.625C86.6254 63.199 85.8014 62.477 84.5514 62.477C83.2274 62.477 82.1764 63.25 82.1764 65.148V70.148H80.1764V60.852H82.1764V62.051C82.8014 61.051 83.8014 60.574 85.0514 60.574V60.575ZM98.1764 57.102H100.176V70.125H98.1764V68.773C97.4764 69.75 96.3754 70.352 94.9264 70.352C92.3984 70.352 90.3014 68.199 90.3014 65.449C90.3014 62.676 92.3984 60.551 94.9264 60.551C96.3754 60.551 97.4764 61.148 98.1764 62.125V57.102ZM95.2264 68.449C96.8984 68.449 98.1764 67.199 98.1764 65.477C98.1764 63.75 96.8984 62.5 95.2264 62.5C93.5514 62.5 92.2734 63.75 92.2734 65.477C92.2734 67.199 93.5514 68.449 95.2274 68.449H95.2264ZM106.898 70.375C104.102 70.375 101.977 68.227 101.977 65.477C101.977 62.699 104.074 60.574 106.898 60.574C108.727 60.574 110.301 61.524 111.051 62.977L109.324 63.977C108.926 63.102 108 62.551 106.875 62.551C105.227 62.551 104 63.801 104 65.477C104 67.148 105.25 68.398 106.875 68.398C108 68.398 108.898 67.824 109.352 66.977L111.074 67.949C110.324 69.426 108.727 70.375 106.898 70.375ZM114.426 63.375C114.426 65.075 119.426 64.051 119.426 67.5C119.426 69.352 117.801 70.375 115.801 70.375C113.949 70.375 112.601 69.523 112 68.199L113.727 67.199C114.023 68.051 114.773 68.551 115.801 68.551C116.699 68.551 117.375 68.25 117.375 67.5C117.375 65.852 112.375 66.773 112.375 63.45C112.375 61.7 113.875 60.602 115.773 60.602C117.301 60.602 118.574 61.301 119.227 62.523L117.523 63.477C117.199 62.75 116.551 62.426 115.773 62.426C115.051 62.398 114.426 62.726 114.426 63.375ZM123 63.375C123 65.075 128 64.051 128 67.5C128 69.352 126.375 70.375 124.375 70.375C122.523 70.375 121.175 69.523 120.575 68.199L122.301 67.199C122.601 68.051 123.351 68.551 124.375 68.551C125.273 68.551 125.949 68.25 125.949 67.5C125.949 65.852 120.949 66.773 120.949 63.45C120.949 61.7 122.449 60.602 124.352 60.602C125.875 60.602 127.148 61.301 127.801 62.523L126.101 63.477C125.773 62.75 125.125 62.426 124.351 62.426C123.625 62.398 123 62.726 123 63.375Z" fill="white"/>
<defs>
<linearGradient id="paint0_linear_3_7048" x1="-0.707677" y1="61.1156" x2="22.1447" y2="74.2917" gradientUnits="userSpaceOnUse">
<stop stop-color="#2298BD"/>
<stop offset="1" stop-color="#0ED7B5"/>
</linearGradient>
</defs>
</svg>
