<svg width="128" height="128" viewBox="0 0 128 128" fill="none" xmlns="http://www.w3.org/2000/svg">
<path d="M23.0642 6.845C22.9207 6.85029 22.7801 6.88753 22.6527 6.95401C22.5254 7.02049 22.4145 7.11454 22.3281 7.22931C22.2417 7.34407 22.1819 7.47666 22.1533 7.61742C22.1246 7.75819 22.1276 7.90357 22.1622 8.043L43.0342 92.523C43.0751 92.6873 43.1585 92.838 43.2759 92.9599C43.3934 93.0819 43.5408 93.1708 43.7035 93.2178C43.8662 93.2648 44.0383 93.2682 44.2027 93.2277C44.3671 93.1872 44.518 93.1042 44.6402 92.987L107.423 32.588C107.545 32.4705 107.634 32.3229 107.682 32.1601C107.729 31.9972 107.732 31.8249 107.691 31.6603C107.651 31.4957 107.567 31.3448 107.45 31.2225C107.333 31.1003 107.185 31.0112 107.022 30.964L23.3662 6.882C23.2681 6.85379 23.1662 6.84131 23.0642 6.845ZM24.4382 9.2L104.878 32.357L44.5082 90.434L24.4382 9.2Z" fill="white"/>
<path d="M64.9003 18.886C64.656 18.8901 64.4223 18.9865 64.2463 19.156L32.8693 49.361C32.7471 49.4786 32.6581 49.6263 32.6111 49.7892C32.5641 49.9521 32.5608 50.1245 32.6015 50.289C32.6423 50.4536 32.7256 50.6046 32.8432 50.7267C32.9607 50.8489 33.1084 50.938 33.2713 50.985L75.0743 63.033C75.2371 63.0799 75.4095 63.0831 75.574 63.0423C75.7384 63.0015 75.8893 62.9182 76.0114 62.8006C76.1335 62.6831 76.2225 62.5355 76.2696 62.3727C76.3166 62.2099 76.3199 62.0375 76.2793 61.873L65.8533 19.62C65.8008 19.4077 65.6779 19.2196 65.5046 19.0862C65.3313 18.9529 65.1179 18.8823 64.8993 18.886H64.9003ZM64.3803 21.708L74.0033 60.715L35.4143 49.592L64.3803 21.708Z" fill="white"/>
<path d="M49.3274 33.835C49.1842 33.8406 49.0441 33.8781 48.9172 33.9446C48.7902 34.011 48.6797 34.1049 48.5935 34.2194C48.5074 34.3339 48.4478 34.4661 48.419 34.6065C48.3903 34.7469 48.3932 34.8919 48.4274 35.031L53.6034 56.019C53.6439 56.1838 53.7272 56.335 53.8447 56.4573C53.9623 56.5797 54.11 56.669 54.273 56.7161C54.436 56.7632 54.6086 56.7666 54.7733 56.7259C54.938 56.6851 55.0891 56.6017 55.2114 56.484L70.7984 41.463C70.9205 41.3453 71.0095 41.1976 71.0564 41.0347C71.1034 40.8717 71.1066 40.6992 71.0657 40.5347C71.0249 40.3701 70.9414 40.2191 70.8238 40.097C70.7061 39.9749 70.5583 39.8859 70.3954 39.839L49.6304 33.872C49.532 33.8437 49.4297 33.8312 49.3274 33.835ZM50.7014 36.189L68.2534 41.232L55.0774 53.93L50.7014 36.19V36.189Z" fill="white"/>
<path d="M44.164 12.869C43.9194 12.8728 43.6853 12.9693 43.509 13.139L27.922 28.168C27.7999 28.2856 27.7108 28.4333 27.6638 28.5962C27.6168 28.7591 27.6135 28.9315 27.6543 29.096C27.695 29.2606 27.7784 29.4116 27.8959 29.5337C28.0135 29.6559 28.1611 29.745 28.324 29.792L49.09 35.759C49.2529 35.8059 49.4252 35.8091 49.5897 35.7683C49.7542 35.7275 49.9051 35.6442 50.0271 35.5266C50.1492 35.4091 50.2383 35.2615 50.2853 35.0987C50.3323 34.9359 50.3356 34.7635 50.295 34.599L45.118 13.605C45.0657 13.3926 44.9429 13.2042 44.7696 13.0706C44.5963 12.9371 44.3828 12.8664 44.164 12.87V12.869ZM43.642 15.694L48.019 33.441L30.465 28.397L43.642 15.694ZM85.7 24.838C85.456 24.8423 85.2228 24.9388 85.047 25.108L69.457 40.13C69.3354 40.2479 69.2469 40.3956 69.2004 40.5584C69.1539 40.7212 69.151 40.8934 69.192 41.0577C69.2331 41.222 69.3165 41.3726 69.4341 41.4945C69.5517 41.6164 69.6993 41.7052 69.862 41.752L90.626 47.719C90.7889 47.7659 90.9612 47.7691 91.1257 47.7283C91.2902 47.6875 91.4411 47.6042 91.5631 47.4866C91.6852 47.3691 91.7743 47.2215 91.8213 47.0587C91.8683 46.8959 91.8717 46.7235 91.831 46.559L86.654 25.572C86.6015 25.3598 86.4786 25.1716 86.3053 25.0383C86.132 24.9049 85.9186 24.8343 85.7 24.838ZM85.18 27.662L89.557 45.402L72.004 40.358L85.18 27.662ZM54.524 54.844C54.28 54.8483 54.0468 54.9448 53.871 55.114L38.281 70.134C38.1589 70.2518 38.07 70.3997 38.0232 70.5628C37.9763 70.7258 37.9733 70.8984 38.0144 71.063C38.0554 71.2276 38.1391 71.3785 38.257 71.5005C38.3749 71.6225 38.5229 71.7113 38.686 71.758L59.458 77.725C59.6208 77.7717 59.793 77.7747 59.9574 77.7338C60.1217 77.6929 60.2724 77.6095 60.3944 77.492C60.5163 77.3745 60.6052 77.227 60.6522 77.0643C60.6992 76.9016 60.7026 76.7294 60.662 76.565L55.478 55.578C55.4255 55.3657 55.3026 55.1776 55.1293 55.0443C54.956 54.9109 54.7426 54.8403 54.524 54.844ZM54.004 57.667L58.386 75.407L40.828 70.365L54.004 57.667Z" fill="white"/>
<path d="M25.9556 114.7C25.5036 115.741 24.6496 116.194 23.8376 116.194C22.8106 116.194 21.8486 115.447 21.8486 113.946V108.626H26.1646V107.255H21.8486V103.514L20.3266 103.406V107.255H18.6826V108.626H20.3266V113.946C20.3266 116.323 22.0566 117.694 23.8596 117.694C25.1796 117.694 26.5516 116.984 27.3196 115.318L25.9556 114.7ZM38.7156 116.237V112.13C38.7156 109.588 37.6526 106.975 35.0176 106.975C33.7536 106.975 32.4326 107.556 31.9376 108.454V103.514L30.4216 103.406V117.414H31.9366V110.076C32.3896 109.179 33.0286 108.496 34.2706 108.496C36.0656 108.496 37.0926 109.947 37.0926 111.742V117.414H38.8226C38.7146 117.048 38.7146 116.624 38.7146 116.237H38.7156ZM50.4326 108.92L51.3726 107.448C50.2246 106.996 49.8366 106.975 49.4496 106.975C48.6596 106.975 47.0586 107.104 46.3476 108.454C46.3476 108.217 46.4976 107.448 46.6276 107.254H42.8866V108.389L44.9616 108.497V116.172H41.8166V117.414H49.5566C49.4496 117.048 49.4496 116.624 49.4496 116.237V116.172H46.4336V110.335C46.7786 108.813 48.7026 107.98 50.4336 108.92H50.4326ZM58.1296 106.975C55.2216 106.975 53.6996 108.877 53.6206 112.151V113.071C53.6206 115.763 55.5446 117.694 58.2156 117.694C59.7166 117.694 61.1026 117.048 62.0856 115.978L61.1886 114.866C60.0326 115.978 59.0706 116.302 58.1726 116.302C56.3776 116.302 55.1146 114.973 55.1146 113.07L62.3666 113.027L62.3876 112.151C62.5176 108.856 61.0166 106.975 58.1296 106.975ZM60.7866 111.699H55.1366C55.2216 109.609 56.0116 108.303 57.9786 108.303C59.9466 108.303 60.8866 109.523 60.7866 111.699ZM69.8906 106.975C66.9826 106.975 65.4606 108.877 65.3746 112.151V113.071C65.3746 115.763 67.2986 117.694 69.9766 117.694C70.7053 117.691 71.4255 117.537 72.0917 117.242C72.7578 116.947 73.3554 116.516 73.8466 115.978L72.9496 114.866C71.7936 115.978 70.8316 116.302 69.9336 116.302C68.1386 116.302 66.8756 114.973 66.8756 113.07L74.1276 113.027L74.1486 112.151C74.2786 108.856 72.7776 106.975 69.8906 106.975ZM72.5406 111.699H66.8966C66.9826 109.609 67.7726 108.303 69.7396 108.303C71.7076 108.303 72.6476 109.523 72.5396 111.699H72.5406ZM80.4526 116.56C80.4526 117.285 80.8626 117.694 81.5876 117.694C82.2906 117.694 82.7006 117.285 82.7006 116.56C82.7006 115.85 82.2906 115.447 81.5876 115.447C80.8836 115.447 80.4526 115.849 80.4526 116.56ZM95.1426 105.46C95.8466 105.46 96.2566 105.072 96.2566 104.325C96.2566 103.615 95.8466 103.234 95.1436 103.234C94.4396 103.234 94.0306 103.614 94.0306 104.325C94.0306 105.072 94.4176 105.46 95.1436 105.46H95.1426ZM92.4296 107.255V108.389L94.5256 108.497V117.414C94.5256 118.929 93.5636 119.662 92.5366 119.662C91.6966 119.662 90.8426 119.209 90.3966 118.182L89.0466 118.779C89.8156 120.473 91.1866 121.155 92.5156 121.155C94.3106 121.155 96.0406 119.805 96.0406 117.415L96.0626 107.255H92.4296ZM105.706 111.599C103.76 111.232 102.862 110.759 102.862 109.947C102.862 109.028 103.975 108.367 105.533 108.367C106.646 108.367 107.393 108.705 108.226 109.588L109.188 108.626C108.441 107.556 107.077 106.975 105.361 106.975C103.013 106.975 101.426 108.174 101.426 109.99C101.426 111.577 102.646 112.496 105.576 113.092C107.35 113.437 107.888 113.752 107.888 114.442C107.888 115.447 106.668 116.323 105.275 116.323C104.083 116.323 103.013 115.663 102.029 114.507L101.003 115.555C102.051 116.941 103.437 117.695 105.253 117.695C107.716 117.695 109.317 116.323 109.317 114.42C109.317 112.877 108.269 112.087 105.706 111.599Z" fill="white"/>
</svg>
