<svg width="128" height="128" viewBox="0 0 128 128" fill="none" xmlns="http://www.w3.org/2000/svg">
<path d="M22.6699 47H122.34V120.67H22.6699V47Z" fill="white"/>
<path d="M3 65.5V128H128V3H3V65.5ZM103.73 60.5C106.724 61.1948 109.445 62.7606 111.55 65C112.709 66.2064 113.716 67.5497 114.55 69C114.55 69.16 109.15 72.81 105.86 74.85C105.74 74.93 105.26 74.41 104.73 73.62C104.129 72.5837 103.276 71.7164 102.25 71.0991C101.223 70.4818 100.057 70.1346 98.86 70.09C95.07 69.83 92.63 71.82 92.65 75.09C92.6187 75.9041 92.8051 76.7119 93.19 77.43C94.02 79.16 95.57 80.19 100.43 82.29C109.38 86.14 113.21 88.68 115.59 92.29C118.25 96.29 118.84 102.75 117.04 107.53C115.04 112.73 110.14 116.26 103.21 117.43C100.045 117.793 96.8468 117.759 93.69 117.33C88.8516 116.532 84.3948 114.209 80.97 110.7C79.82 109.43 77.58 106.12 77.72 105.88C78.0851 105.609 78.4694 105.365 78.87 105.15L83.5 102.59L87.09 100.51L87.84 101.62C89.1057 103.431 90.7166 104.973 92.58 106.16C96.58 108.26 102.04 107.97 104.74 105.54C105.647 104.65 106.212 103.469 106.338 102.205C106.464 100.941 106.143 99.6719 105.43 98.62C104.43 97.23 102.43 96.06 96.84 93.62C90.39 90.84 87.61 89.12 85.07 86.38C83.4843 84.5719 82.3136 82.4386 81.64 80.13C81.1375 77.4924 81.0633 74.7912 81.42 72.13C82.75 65.9 87.42 61.55 94.24 60.26C97.3984 59.8692 100.598 59.9569 103.73 60.52V60.5ZM74.39 65.74V70.86H58.16V117.09H46.65V70.85H30.38V65.85C30.3293 64.1258 30.3694 62.4 30.5 60.68C30.58 60.59 40.5 60.59 52.5 60.59H74.33L74.39 65.74Z" fill="#007ACC"/>
</svg>
