<svg width="48" height="49" viewBox="0 0 48 49" fill="none" xmlns="http://www.w3.org/2000/svg">
<path fill-rule="evenodd" clip-rule="evenodd" d="M1.12587 5.39026C0 7.55764 0 10.4051 0 16.1V31.9C0 37.5949 0 40.4424 1.12587 42.6097C2.07462 44.4362 3.56382 45.9254 5.39026 46.8741C7.55764 48 10.4051 48 16.1 48H17.9927C17.9961 47.6163 18.0311 43.5973 18.019 41.5349C11.3432 42.9847 9.93473 38.3172 9.93473 38.3172C8.84298 35.5458 7.26945 34.8077 7.26945 34.8077C5.09038 33.3181 7.43447 33.3476 7.43447 33.3476C9.84338 33.5185 11.1105 35.8213 11.1105 35.8213C13.2512 39.4885 16.7283 38.4291 18.0956 37.8162C18.3136 36.2648 18.9324 35.2069 19.619 34.6073C14.2899 34.0017 8.68681 31.942 8.68681 22.7454C8.68681 20.1258 9.62238 17.9836 11.1576 16.3054C10.9101 15.6984 10.0865 13.2586 11.3919 9.95387C11.3919 9.95387 13.4074 9.30855 17.9924 12.4143C19.9063 11.8825 21.9601 11.6158 24.0007 11.607C26.0384 11.6158 28.0922 11.8825 30.009 12.4143C34.5911 9.30855 36.6022 9.95387 36.6022 9.95387C37.912 13.2586 37.0884 15.6984 36.8409 16.3054C38.3791 17.9836 39.3087 20.1258 39.3087 22.7454C39.3087 31.9656 33.6968 33.9944 28.35 34.5881C29.2119 35.3292 29.9795 36.7937 29.9795 39.0332C29.9795 41.9096 30.0066 47.5431 30.0089 48H31.9C37.5949 48 40.4424 48 42.6097 46.8741C44.4362 45.9254 45.9254 44.4362 46.8741 42.6097C48 40.4424 48 37.5949 48 31.9V16.1C48 10.4051 48 7.55764 46.8741 5.39026C45.9254 3.56382 44.4362 2.07462 42.6097 1.12587C40.4424 0 37.5949 0 31.9 0H16.1C10.4051 0 7.55764 0 5.39026 1.12587C3.56382 2.07462 2.07462 3.56382 1.12587 5.39026Z" fill="black"/>
<path fill-rule="evenodd" clip-rule="evenodd" d="M17.9925 48.0296C17.9925 48.0296 18.0318 43.7021 18.019 41.5349C11.3433 42.9847 9.93479 38.3172 9.93479 38.3172C8.84304 35.5458 7.26951 34.8077 7.26951 34.8077C5.09044 33.3181 7.43453 33.3476 7.43453 33.3476C9.84344 33.5185 11.1105 35.8213 11.1105 35.8213C13.2513 39.4885 16.7284 38.4291 18.0956 37.8162C18.3137 36.2648 18.9325 35.2069 19.6191 34.6073C14.29 34.0017 8.68687 31.942 8.68687 22.7454C8.68687 20.1258 9.62244 17.9836 11.1577 16.3054C10.9101 15.6984 10.0865 13.2586 11.3919 9.95387C11.3919 9.95387 13.4075 9.30855 17.9925 12.4143C19.9064 11.8825 21.9602 11.6158 24.0008 11.607C26.0384 11.6158 28.0922 11.8825 30.0091 12.4143C34.5912 9.30855 36.6023 9.95387 36.6023 9.95387C37.9121 13.2586 37.0885 15.6984 36.841 16.3054C38.3791 17.9836 39.3088 20.1258 39.3088 22.7454C39.3088 31.9656 33.6968 33.9944 28.3501 34.5881C29.212 35.3292 29.9796 36.7937 29.9796 39.0332C29.9796 42.0325 30.0091 48.0296 30.0091 48.0296H17.9925Z" fill="white"/>
</svg>
